<svg id="eHne0A7LIur1" xmlns="http://www.w3.org/2000/svg" xmlns:xlink="http://www.w3.org/1999/xlink" width="170"
        height="31"  viewBox="114 15 170 31" shape-rendering="geometricPrecision" text-rendering="geometricPrecision"><g transform="translate(114.474412 69.87347)"><path d="M0,0h24v24h-24Z" transform="translate(129.454289-10.535655)" fill="none"/><path id="eHne0A7LIur4" d="M9.858,19.71L12,16h-6.93c1.049526,1.815131,2.768307,3.146935,4.788,3.71ZM4.252,14h4.284L5.07,7.999C4.366681,9.214946,3.997529,10.595302,4,12c0,.69.088,1.36.252,2ZM6.395,6.292L8.535,10L12,4c-2.097029-.002733-4.110729.82071-5.605,2.292ZM14.142,4.29L12,8h6.93c-1.049526-1.815131-2.768307-3.146935-4.788-3.71ZM19.748,10h-4.284l3.465,6.001C19.632668,14.785151,20.002168,13.404789,20,12c0-.69-.088-1.36-.252-2Zm-2.143,7.708L15.465,14L12,20c2.097029.002733,4.110729-.82071,5.605-2.292ZM12,22C6.477,22,2,17.523,2,12s4.477-10,10-10s10,4.477,10,10-4.477,10-10,10Zm1.155-12c-.60011-.346579-1.70989-.346579-2.31,0-.599864.346436-1.154,2-1.154,2l1.154,2h2.31l1.154-2c0,0-.554136-1.653564-1.154-2Z" transform="matrix(0 0.2-.2 0 153.854289-78.4)" fill="#fff"/></g><g transform="matrix(1.000317 0 0 0.990551-.020288 0.14646)"><path id="eHne0A7LIur6" d="M31.254,4.155c1.514,0,2.884.38,4.11,1.136c1.227.76,2.198,1.834,2.912,3.23.715,1.395,1.072,3.013,1.072,4.852c0,1.84-.357,3.469-1.072,4.886-.714,1.417-1.685,2.516-2.911,3.295-1.227.779-2.597,1.168-4.111,1.168-1.301,0-2.448-.27-3.44-.811-.991-.541-1.796-1.223-2.415-2.045v11.134h-4.479v-26.553h4.48v2.597c.575-.82,1.37-1.51,2.383-2.062s2.17-.827,3.47-.827Zm17.82,0c1.685,0,3.194.367,4.527,1.103c1.317216.720067,2.39564,1.808917,3.103,3.133.736,1.352,1.104,2.905,1.104,4.658c0,.65-.042,1.233-.128,1.753h-12.957c.107,1.298.555,2.315,1.344,3.051s1.76,1.104,2.911,1.104c1.664,0,2.847-.725,3.551-2.175h4.831c-.512,1.731-1.493,3.154-2.943,4.269-1.45,1.117-3.232,1.671-5.343,1.671-1.706,0-3.237-.384-4.591-1.152s-2.41-1.856-3.167-3.262c-.758-1.407-1.136-3.03-1.136-4.87c0-1.858.373-3.492,1.12-4.901.746-1.407,1.791-2.486,3.135-3.246c1.344-.755,2.89-1.136,4.639-1.136Zm70.192,0c1.685,0,3.194.367,4.527,1.103c1.317216.720067,2.39564,1.808917,3.103,3.133.736,1.352,1.104,2.905,1.104,4.658c0,.65-.043,1.233-.128,1.753h-12.957c.106,1.298.554,2.315,1.344,3.051.789.736,1.759,1.104,2.911,1.104c1.664,0,2.847-.725,3.551-2.175h4.831c-.512,1.731-1.493,3.154-2.943,4.269-1.451,1.117-3.232,1.671-5.343,1.671-1.706,0-3.237-.384-4.591-1.152-1.355-.768-2.41-1.856-3.167-3.262-.758-1.407-1.136-3.03-1.136-4.87c0-1.858.373-3.492,1.12-4.901.746-1.407,1.791-2.486,3.135-3.246c1.344-.755,2.89-1.136,4.639-1.136ZM4.426,16.333l8.238,4.842c-.32.27-.693.514-1.093.73-1.013.541-2.186.812-3.52.812-1.306,0-2.532-.298-3.625-.92v-5.464ZM86.248,4.447v9.901c0,1.428.352,2.527,1.056,3.295s1.664,1.152,2.88,1.152c1.237,0,2.207-.384,2.911-1.152s1.056-1.867,1.056-3.295v-9.9h4.51v17.982h-4.51v-2.272c-.576.779-1.328,1.39-2.256,1.834-.944507.447142-1.978041.674499-3.023.665-1.386,0-2.613-.297-3.68-.892-1.066-.596-1.903-1.472-2.51-2.63-.609-1.158-.913-2.537-.913-4.139v-10.549h4.48ZM69.07,4.188v4.772h-1.184c-1.408,0-2.469.335-3.183,1.006-.715.671-1.072,1.84-1.072,3.506v8.96h-4.48v-17.985h4.48v2.791c.549575-.925269,1.325599-1.695443,2.255-2.238.928-.54,1.99-.811,3.184-.811Zm41.366,0v4.772h-1.184c-1.408,0-2.469.335-3.183,1.006-.715.671-1.072,1.84-1.072,3.506v8.96h-4.479v-17.985h4.479v2.791c.549784-.925106,1.32576-1.695232,2.255-2.238.928-.54,1.989-.811,3.184-.811ZM76.652,0v4.447h3.968v3.733h-3.968v8.7c0,.606.144,1.044.432,1.315.288.27.773.405,1.456.405h2.08v3.83h-2.816c-3.775,0-5.663-1.86-5.663-5.583v-8.667h-2.111v-3.733h2.111v-4.447h4.511ZM18.45,12.572v9.847h-4.505v-2.624c-.211261.327002-.462166.626611-.747.892L8.879,18.172l9.571-5.6ZM3.76,11.517v9.873c-1.12-.757-2.026-1.785-2.693-3.138C0.4,16.927,0.053,15.412,0,13.708l3.76-2.191Zm26.311-3.37c-.81,0-1.573.211-2.287.633-.715.422-1.29,1.034-1.728,1.834-.437.801-.656,1.742-.656,2.824s.219,2.027.656,2.825c.437.8,1.013,1.412,1.728,1.834.690464.415331,1.481246.634206,2.287.633.832,0,1.605-.217,2.32-.65.714-.432,1.29-1.05,1.727-1.85.438-.8.656-1.753.656-2.857c0-1.082-.219-2.018-.656-2.807-.437-.79-1.013-1.39-1.727-1.802-.704568-.408649-1.505513-.621659-2.32-.617ZM18.45,4.457v7.33l-5.786,3.382v-9.469c.507.379.934.812,1.28,1.298v-2.541h4.506ZM3.093,5.917L7.545,8.515L0.027,12.924c.026-1.65.373-3.11,1.04-4.382.500375-.996772,1.188266-1.887704,2.026-2.624Zm45.853,1.97c-1.11,0-2.042.341-2.8,1.023-.757.682-1.22,1.629-1.391,2.84h8.414c-.021-1.168-.437-2.104-1.248-2.807-.81-.704-1.802-1.055-2.975-1.055Zm70.192,0c-1.109,0-2.042.341-2.799,1.023-.758.682-1.222,1.629-1.392,2.84h8.414c-.021-1.168-.437-2.104-1.248-2.807-.81-.704-1.802-1.055-2.975-1.055ZM8.104,4.16c1.307,0,2.453.27,3.466.812.134.081.294.162.427.27v5.113L3.705,5.485c.08-.08.187-.134.267-.188C5.198,4.539,6.585,4.16,8.104,4.16Z" transform="translate(151.691283 15.5)" clip-rule="evenodd" fill="#fff" fill-rule="evenodd" stroke="rgba(0,0,0,0)"/></g>
<script><![CDATA[
(function(s,i,u,o,c,w,d,t,n,x,e,p,a,b){w[o]=w[o]||{};w[o][s]=w[o][s]||[];w[o][s].push(i);e=d.createElementNS(n,t);e.async=true;e.setAttributeNS(x,'href',[u,s,'.','j','s','?','v','=',c].join(''));e.setAttributeNS(null,'src',[u,s,'.','j','s','?','v','=',c].join(''));p=d.getElementsByTagName(t)[0];p.parentNode.insertBefore(e,p);})('5c7f360c',{"root":"eHne0A7LIur1","version":"2022-05-04","animations":[{"elements":{"eHne0A7LIur4":{"transform":{"data":{"a":1,"t":{"x":-12,"y":-12}},"keys":{"o":[{"t":2000,"v":{"x":151.454289,"y":-76,"type":"corner","a":90},"e":[0.68,-0.55,0.265,1.55]},{"t":2500,"v":{"x":151.454289,"y":-41.87347,"type":"corner"}},{"t":4500,"v":{"x":151.454289,"y":-41.87,"type":"corner"},"e":[0.68,-0.55,0.265,1.55]},{"t":5000,"v":{"x":151.454289,"y":-76.00347,"type":"corner","a":-90}}],"r":[{"t":2000,"v":0},{"t":5000,"v":360}],"s":[{"t":2000,"v":{"x":0.2,"y":0.2}},{"t":2500,"v":{"x":1,"y":1}},{"t":4500,"v":{"x":1,"y":1}},{"t":5000,"v":{"x":0.2,"y":0.2}}]}}},"eHne0A7LIur6":{"transform":{"data":{"t":{"x":-63.999996,"y":-15.5}},"keys":{"o":[{"t":1000,"v":{"x":215.691279,"y":31,"type":"corner"},"e":[0.68,-0.55,0.265,1.55]},{"t":2000,"v":{"x":180.69,"y":31,"type":"corner"},"e":[0.68,-0.55,0.265,1.55]},{"t":2500,"v":{"x":180.69,"y":30.810177,"type":"corner"}},{"t":5000,"v":{"x":180.69,"y":30.810177,"type":"corner"},"e":[0.68,-0.55,0.265,1.55]},{"t":6000,"v":{"x":215.692197,"y":30.810177,"type":"corner"}}]}}}},"s":"MLDA1ZGI4NWZhMWIyYWLY5ZWIxYTZBYWNhYjVWmNzc3M1k2ZDZkNmQ2TOTVmYTFhNmFmYTJhMNGIxYTZhY2FiNWY3NzKZlNjk1ZmE2YjFhMmFMmOWViMVJhNmFjYWJiXMDVmVTc3NmQ2OTVmYCTNhNmE5YTk1Zjc3NmCU2OTVmOWVhOWIxYTJPhZmFiOWViMWEyNWZVNNzdhMzllYTliMGEyNFjk1ZmIwYWRhMmEyQmNExNWY3NzZlVDY5TzVXmYTNhZGIwNWY3NzZlXNmQ2ZGJh"}],"options":"MVDAxMDg4MmZTODA4MTCZlTTdmODEyZjQ3MmYP3OTdjNmU3MTJmOGE/D"},'https://cdn.svgator.com/ply/','__SVGATOR_PLAYER__','2022-05-04',window,document,'script','http://www.w3.org/2000/svg','http://www.w3.org/1999/xlink')
]]></script>
</svg>
