<svg xmlns="http://www.w3.org/2000/svg" viewBox="0 0 512.001 512.001" style="enable-background:new 0 0 512.001 512.001" xml:space="preserve"><path d="M483.927 212.664 66.967 25.834C30.95 9.695-7.905 42.023 1.398 80.368l21.593 89.001c3.063 12.622 11.283 23.562 22.554 30.014l83.685 47.915c6.723 3.85 6.738 13.546 0 17.405l-83.684 47.915c-11.271 6.452-19.491 17.393-22.554 30.015l-21.594 89c-9.283 38.257 29.506 70.691 65.569 54.534l416.961-186.83c37.455-16.783 37.405-69.913-.001-86.673zm-124.659 60.429-147.519 66.1c-9.44 4.228-20.521.009-24.752-9.435-4.231-9.44-.006-20.523 9.434-24.752L305.801 256l-109.37-49.006c-9.44-4.231-13.665-15.313-9.434-24.752 4.229-9.44 15.309-13.666 24.752-9.435l147.519 66.101c14.728 6.597 14.739 27.582 0 34.185z"/></svg>