<svg xmlns="http://www.w3.org/2000/svg" xmlns:xlink="http://www.w3.org/1999/xlink"><defs><clipPath id="a"><path fill="#fff" d="M0 0h24v24H0z"/></clipPath></defs><symbol id="facebook"><g fill="none"><path d="M17.625 7.771H13.79v-2.49c0-.936.628-1.155 1.068-1.155h2.7V.014L13.835 0c-4.13 0-5.068 3.067-5.068 5.031v2.74H6.375v4.236h2.39V24h5.028V12.01h3.392l.44-4.239Z" fill="silver"/></g></symbol><symbol id="instagram"><g fill="none"><g clip-path="url(#a)"><path d="M12 5.768A6.239 6.239 0 0 0 5.768 12 6.237 6.237 0 0 0 12 18.23 6.236 6.236 0 0 0 18.23 12 6.235 6.235 0 0 0 12 5.768Zm0 10.086A3.857 3.857 0 0 1 8.146 12 3.857 3.857 0 0 1 12 8.146 3.857 3.857 0 0 1 15.854 12 3.857 3.857 0 0 1 12 15.854ZM17.094 0H6.906A6.915 6.915 0 0 0 0 6.906v10.188A6.915 6.915 0 0 0 6.906 24h10.188A6.915 6.915 0 0 0 24 17.094V6.906A6.914 6.914 0 0 0 17.094 0Zm4.53 17.094a4.535 4.535 0 0 1-4.53 4.528H6.906a4.533 4.533 0 0 1-4.528-4.528V6.906a4.533 4.533 0 0 1 4.528-4.528h10.188a4.533 4.533 0 0 1 4.528 4.528v10.188h.002ZM18.317 3.968c-.898 0-1.631.73-1.631 1.63 0 .898.73 1.631 1.63 1.631.899 0 1.631-.73 1.631-1.63 0-.9-.732-1.631-1.63-1.631Z" fill="silver"/></g></g></symbol><symbol id="iso"><g fill="none"><path fill-rule="evenodd" clip-rule="evenodd" d="M28.9 0C30.611 0 32 1.4 32 3.125v9.75C32 14.601 30.612 16 28.9 16H3.1C1.389 16 0 14.6 0 12.875v-9.75C0 1.399 1.388 0 3.1 0h25.8ZM12.71 2.911c-.679 0-1.282.116-1.81.35-.528.232-.938.567-1.23 1.004-.292.437-.438.95-.438 1.539 0 .627.143 1.128.43 1.503a2.74 2.74 0 0 0 1.033.84c.4.186.921.374 1.563.564.47.133.84.254 1.11.363.268.11.492.259.671.449.18.19.269.432.269.727 0 .36-.132.653-.396.876-.264.223-.627.335-1.089.335-.452 0-.808-.119-1.068-.356-.248-.228-.39-.535-.427-.92l-.004-.05h-2.12v.066c.02.58.185 1.086.494 1.516.32.447.757.789 1.308 1.026.552.238 1.171.357 1.86.357.725 0 1.352-.136 1.88-.406.528-.271.928-.635 1.202-1.09.273-.456.41-.95.41-1.482 0-.618-.146-1.117-.438-1.497a2.823 2.823 0 0 0-1.047-.855c-.405-.19-.928-.38-1.57-.57a11.673 11.673 0 0 1-1.095-.377 1.994 1.994 0 0 1-.65-.428.902.902 0 0 1-.262-.662c0-.38.116-.67.346-.87.231-.2.54-.299.927-.299.443 0 .798.112 1.067.335.258.214.4.482.428.805l.003.043h2.178l-.005-.06c-.077-.865-.427-1.54-1.049-2.028-.636-.499-1.463-.748-2.481-.748Zm10.684 0c-.924 0-1.772.219-2.545.655a4.874 4.874 0 0 0-1.838 1.817c-.453.775-.679 1.646-.679 2.615 0 .979.226 1.855.679 2.63a4.875 4.875 0 0 0 1.838 1.816 5.082 5.082 0 0 0 2.545.656c.924 0 1.772-.219 2.545-.656a4.823 4.823 0 0 0 1.831-1.817c.448-.774.672-1.65.672-2.629 0-.969-.224-1.84-.672-2.615a4.836 4.836 0 0 0-1.824-1.817 5.07 5.07 0 0 0-2.552-.655Zm-16.632.143h-1.98V13h1.98V3.053Zm16.632 1.653c.594 0 1.117.133 1.57.399.452.266.806.648 1.06 1.147.255.498.382 1.08.382 1.745s-.127 1.25-.382 1.753c-.254.504-.608.89-1.06 1.161-.453.271-.976.406-1.57.406-.594 0-1.12-.135-1.576-.406a2.762 2.762 0 0 1-1.068-1.161c-.254-.503-.382-1.088-.382-1.753 0-.665.128-1.247.382-1.745.255-.5.61-.881 1.068-1.147.457-.266.982-.4 1.576-.4Z" fill="#fff"/></g></symbol><symbol id="label"><g fill="none"><path fill-rule="evenodd" clip-rule="evenodd" d="M5 6.445c-.962 0-1.74-.745-1.74-1.664 0-.918.778-1.662 1.74-1.662.96 0 1.738.744 1.738 1.662 0 .92-.778 1.664-1.738 1.664ZM5 0C2.239 0 0 2.14 0 4.78c0 1.928 2.659 7.691 4.1 10.67.353.733 1.444.733 1.8 0C7.34 12.47 10 6.708 10 4.78 10 2.14 7.761 0 5 0Z" fill="#fff"/></g></symbol><symbol id="lens"><g fill="none"><path fill-rule="evenodd" clip-rule="evenodd" d="m4.64 10.596 7.383 4.29A7.774 7.774 0 0 1 8 16a7.6 7.6 0 0 1-3.36-.758v-4.646ZM4.046 6.4v8.533c-2.224-1.232-3.763-3.532-4-6.21l4-2.323ZM16 7.94v.071a7.91 7.91 0 0 1-3.408 6.519l-4-2.3L16 7.94Zm-4.047-6.873c2.225 1.232 3.763 3.532 4 6.21l-4 2.323V1.067Zm-8.545.403 4 2.299L0 8.036v-.024A7.922 7.922 0 0 1 3.408 1.47ZM8 0c1.207 0 2.344.26 3.361.759V5.38L3.977 1.09A7.987 7.987 0 0 1 8 0Z" fill="#fff"/></g></symbol><symbol id="send" viewBox="0 0 512.001 512.001"><g style="enable-background:new 0 0 512.001 512.001"><path d="M483.927 212.664 66.967 25.834C30.95 9.695-7.905 42.023 1.398 80.368l21.593 89.001c3.063 12.622 11.283 23.562 22.554 30.014l83.685 47.915c6.723 3.85 6.738 13.546 0 17.405l-83.684 47.915c-11.271 6.452-19.491 17.393-22.554 30.015l-21.594 89c-9.283 38.257 29.506 70.691 65.569 54.534l416.961-186.83c37.455-16.783 37.405-69.913-.001-86.673zm-124.659 60.429-147.519 66.1c-9.44 4.228-20.521.009-24.752-9.435-4.231-9.44-.006-20.523 9.434-24.752L305.801 256l-109.37-49.006c-9.44-4.231-13.665-15.313-9.434-24.752 4.229-9.44 15.309-13.666 24.752-9.435l147.519 66.101c14.728 6.597 14.739 27.582 0 34.185z"/></g></symbol><symbol id="time"><g fill="none"><path fill-rule="evenodd" clip-rule="evenodd" d="M8.373 0c.065 0 .117.052.117.117v.122a.117.117 0 0 1-.117.117h-.134v.395a7.625 7.625 0 0 1 7.386 7.622 7.626 7.626 0 1 1-15.25 0A7.626 7.626 0 0 1 7.761.751V.356h-.134A.117.117 0 0 1 7.51.24V.117c0-.065.052-.117.117-.117h.746ZM8.19 1.75v.67a.191.191 0 1 1-.382 0v-.67a6.624 6.624 0 0 0-6.43 6.432h.669a.191.191 0 0 1 0 .382h-.67a6.625 6.625 0 0 0 6.43 6.432v-.67a.191.191 0 1 1 .383 0v.67a6.624 6.624 0 0 0 6.43-6.432h-.669a.191.191 0 0 1 0-.382h.67a6.623 6.623 0 0 0-6.43-6.431ZM8 8.018a.356.356 0 0 1 .35.415l2.266 2.05c.058.053.1.12.121.196l.03.111a.077.077 0 0 1-.086.096l-.114-.019a.412.412 0 0 1-.207-.1l-2.266-2.05A.356.356 0 1 1 8 8.018Z" fill="#fff"/></g></symbol><symbol id="twitter"><g fill="none"><path d="M24 4.557a9.882 9.882 0 0 1-2.828.776 4.931 4.931 0 0 0 2.164-2.724 9.9 9.9 0 0 1-3.126 1.196 4.913 4.913 0 0 0-3.593-1.555 4.923 4.923 0 0 0-4.926 4.923c0 .387.044.762.127 1.122A13.968 13.968 0 0 1 1.67 3.15a4.919 4.919 0 0 0-.666 2.476c0 1.709.87 3.215 2.188 4.098a4.876 4.876 0 0 1-2.23-.617v.063a4.926 4.926 0 0 0 3.95 4.827 4.918 4.918 0 0 1-2.222.085 4.929 4.929 0 0 0 4.597 3.42 9.873 9.873 0 0 1-6.113 2.106A9.78 9.78 0 0 1 0 19.539a13.946 13.946 0 0 0 7.547 2.211c9.056 0 14.01-7.501 14.01-14.007 0-.213-.006-.425-.014-.636.962-.696 1.799-1.563 2.457-2.55Z" fill="silver"/></g></symbol></svg>